<svg xmlns="http://www.w3.org/2000/svg" width="256" height="256" viewBox="0 0 100 100"><rect width="100" height="100" rx="20" fill="#212529"></rect><path d="M63.53 62.90L63.53 62.90Q63.53 64.22 63.03 65.39Q62.52 66.55 61.55 67.52L61.55 67.52Q59.98 69.09 57.19 69.98Q54.39 70.87 50.63 70.87L50.63 70.87Q48.25 70.87 45.81 70.36Q43.37 69.86 41.39 68.64L41.39 68.64Q39.36 67.42 38.02 65.44Q36.67 63.46 36.47 60.56L36.47 60.56L27.07 60.56Q27.07 64.07 28.67 67.32Q30.27 70.57 33.32 73.00L33.32 73.00Q36.31 75.49 40.68 76.99Q45.05 78.49 50.63 78.49L50.63 78.49Q55.51 78.49 59.62 77.32Q63.74 76.15 66.68 74.02L66.68 74.02Q69.63 71.89 71.28 68.89Q72.93 65.89 72.93 62.24L72.93 62.24Q72.93 58.84 71.48 56.25Q70.03 53.66 67.29 51.68L67.29 51.68Q64.55 49.75 60.54 48.35Q56.53 46.95 51.45 45.89L51.45 45.89Q47.59 45.13 45.07 44.31Q42.56 43.50 41.09 42.48L41.09 42.48Q39.56 41.47 38.96 40.20Q38.35 38.93 38.35 37.30L38.35 37.30Q38.35 35.73 39.11 34.26Q39.87 32.79 41.39 31.67L41.39 31.67Q42.87 30.55 45.13 29.89Q47.38 29.23 50.38 29.23L50.38 29.23Q53.28 29.23 55.59 30.04Q57.90 30.86 59.52 32.18L59.52 32.18Q61.15 33.50 62.06 35.20Q62.97 36.90 62.97 38.68L62.97 38.68L72.37 38.68Q72.37 35.07 70.82 31.95Q69.27 28.82 66.43 26.49L66.43 26.49Q63.58 24.15 59.52 22.83Q55.46 21.51 50.38 21.51L50.38 21.51Q45.66 21.51 41.72 22.78Q37.79 24.05 34.94 26.23L34.94 26.23Q32.10 28.42 30.53 31.34Q28.95 34.26 28.95 37.61L28.95 37.61Q28.95 41.01 30.47 43.58Q32.00 46.14 34.79 48.02L34.79 48.02Q37.53 49.95 41.42 51.32Q45.30 52.69 50.03 53.66L50.03 53.66Q53.88 54.42 56.47 55.36Q59.06 56.30 60.64 57.41L60.64 57.41Q62.21 58.53 62.87 59.88Q63.53 61.22 63.53 62.90Z" fill="#ffffff"></path></svg>